#!OML:ASF F:\VICON\USERDATA\INSTALL\rory3\rory3.ASF
:FULLY-SPECIFIED
:DEGREES
1
root -4.71702 18.507 2.76757 -14.9953 -78.7349 17.9939
lowerback 0.870343 2.64271 -5.59758
upperback -0.485078 3.37655 -2.72967
thorax -1.14762 1.69598 0.256217
lowerneck -12.8883 -0.477721 -4.91838
upperneck 8.02017 -0.518945 6.66497
head 4.53356 0.00251505 2.83031
rclavicle 2.62893e-014 -2.22639e-014
rhumerus -35.9153 5.92098 -83.4572
rradius 31.8649
rwrist 13.0733
rhand -30.1121 -2.9806
rfingers 7.12502
rthumb -3.42567 -32.9328
lclavicle 2.62893e-014 -2.22639e-014
lhumerus -33.2973 17.1153 71.7662
lradius 22.7893
lwrist -5.7951
lhand -19.8098 23.9195
lfingers 7.12502
lthumb 6.52347 53.7991
rfemur -9.23582 18.3556 14.3462
rtibia 31.544
rfoot -26.9268 -21.2663
rtoes 3.01802
lfemur -9.95603 -8.5211 -22.7665
ltibia 26.5262
lfoot -17.0683 13.0244
ltoes -8.69448
2
root -4.71889 18.5073 2.77186 -15.583 -78.7443 18.642
lowerback 0.797609 2.65435 -5.71599
upperback -0.495065 3.39325 -2.78832
thorax -1.12145 1.70361 0.264298
lowerneck -12.9079 -0.503305 -4.89187
upperneck 8.00585 -0.554244 6.64278
head 4.53438 -0.0151331 2.81632
rclavicle 2.71838e-014 -3.4191e-014
rhumerus -35.8949 5.97496 -83.442
rradius 31.9701
rwrist 12.7809
rhand -30.0153 -1.09226
rfingers 7.12502
rthumb -3.33226 -31.046
lclavicle 2.71838e-014 -3.4191e-014
lhumerus -33.2458 16.9377 71.6804
lradius 22.7209
lwrist -5.55503
lhand -19.8174 24.0116
lfingers 7.12502
lthumb 6.51609 53.8914
rfemur -9.32961 18.4829 14.1864
rtibia 31.6419
rfoot -27.0509 -21.2763
rtoes 3.06597
lfemur -9.94079 -8.3978 -22.9025
ltibia 26.4245
lfoot -17.0486 12.9464
ltoes -8.57981
3
root -4.72073 18.5068 2.77474 -16.2494 -78.7634 19.3463
lowerback 0.753387 2.67011 -5.88183
upperback -0.505089 3.41315 -2.82022
thorax -1.11597 1.71377 0.324335
lowerneck -12.8644 -0.551582 -4.94159
upperneck 7.91922 -0.61295 6.6841
head 4.50443 -0.0442529 2.83205
rclavicle -1.51076e-014 9.54166e-015
rhumerus -35.8998 6.03351 -83.3835
rradius 32.1315
rwrist 12.333
rhand -28.8713 4.73789
rfingers 7.12502
rthumb -2.22742 -25.2302
lclavicle -1.51076e-014 9.54166e-015
lhumerus -33.2564 16.9013 71.5343
lradius 22.6636
lwrist -5.64983
lhand -19.6352 23.9793
lfingers 7.12502
lthumb 6.69199 53.8536
rfemur -9.38018 18.6303 14.0326
rtibia 31.6891
rfoot -27.1446 -21.3163
rtoes 3.28452
lfemur -9.95105 -8.29168 -23.0398
ltibia 26.3894
lfoot -17.0384 12.874
ltoes -8.43679
4
root -4.72058 18.5044 2.77796 -16.5033 -78.7614 19.5839
lowerback 0.800007 2.66191 -5.96141
upperback -0.520447 3.39594 -2.8169
thorax -1.16209 1.70673 0.369076
lowerneck -12.8213 -0.592878 -5.03158
upperneck 7.8396 -0.65861 6.75411
head 4.47622 -0.0664173 2.86444
rclavicle 5.93869e-014 -3.97569e-014
rhumerus -35.8641 5.92948 -83.1891
rradius 32.1718
rwrist 12.3351
rhand -28.4098 4.95808
rfingers 7.12502
rthumb -1.78175 -25.0142
lclavicle 5.93869e-014 -3.97569e-014
lhumerus -33.3283 16.9457 71.3507
lradius 22.6928
lwrist -5.86804
lhand -19.3267 23.9761
lfingers 7.12502
lthumb 6.98979 53.8407
rfemur -9.37955 18.6703 13.9723
rtibia 31.7185
rfoot -27.1847 -21.2831
rtoes 3.57866
lfemur -9.93901 -8.13802 -23.0944
ltibia 26.3787
lfoot -16.9893 12.7608
ltoes -8.52011
5
root -4.71586 18.5023 2.77858 -16.2087 -78.7771 19.2185
lowerback 0.970316 2.65214 -5.95026
upperback -0.532774 3.3696 -2.76555
thorax -1.27144 1.69674 0.407172
lowerneck -12.8538 -0.607339 -5.12824
upperneck 7.83752 -0.666404 6.81582
head 4.48194 -0.0689155 2.89916
rclavicle 1.44864e-014 -1.59028e-014
rhumerus -35.7742 5.68418 -82.8801
rradius 32.1711
rwrist 12.7042
rhand -29.4602 -0.701601
rfingers 7.12502
rthumb -2.79617 -30.663
lclavicle 1.44864e-014 -1.59028e-014
lhumerus -33.3888 17.1532 71.177
lradius 22.7385
lwrist -5.88506
lhand -19.4535 23.868
lfingers 7.12502
lthumb 6.8674 53.7366
rfemur -9.33482 18.8047 14.0859
rtibia 31.7187
rfoot -27.1811 -21.4269
rtoes 3.4566
lfemur -9.913 -7.94541 -23.0155
ltibia 26.3876
lfoot -16.8735 12.6432
ltoes -9.05919
6
root -4.71148 18.5019 2.78286 -15.748 -78.8261 18.6692
lowerback 1.13187 2.6498 -5.84506
upperback -0.534478 3.35657 -2.72149
thorax -1.35957 1.69217 0.386492
lowerneck -12.8493 -0.622496 -5.19477
upperneck 7.77329 -0.676661 6.85476
head 4.46246 -0.0740616 2.92095
rclavicle -4.70623e-014 3.18055e-014
rhumerus -35.658 5.51757 -82.6671
rradius 32.2056
rwrist 12.9831
rhand -29.5206 -2.4623
rfingers 7.12502
rthumb -2.85445 -32.4229
lclavicle -4.70623e-014 3.18055e-014
lhumerus -33.3963 16.9429 71.238
lradius 22.7968
lwrist -5.05188
lhand -20.5057 23.7893
lfingers 7.12502
lthumb 5.85156 53.6885
rfemur -9.2589 18.8581 14.2328
rtibia 31.6898
rfoot -27.1249 -21.5146
rtoes 3.33828
lfemur -9.86211 -7.99842 -22.9162
ltibia 26.4193
lfoot -16.8858 12.7113
ltoes -9.14063
7
root -4.71599 18.501 2.79782 -16.0346 -78.9253 18.8623
lowerback 1.13848 2.65351 -5.71452
upperback -0.495866 3.36444 -2.76929
thorax -1.31327 1.6932 0.266316
lowerneck -12.8344 -0.624277 -5.10456
upperneck 7.69716 -0.682662 6.76809
head 4.43634 -0.0801829 2.87786
rclavicle -3.23522e-014 3.10104e-014
rhumerus -35.5478 5.49023 -82.586
rradius 32.3078
rwrist 13.2884
rhand -29.21 -2.98445
rfingers 7.12502
rthumb -2.55448 -32.9489
lclavicle -3.23522e-014 3.10104e-014
lhumerus -33.3608 16.6205 71.2204
lradius 22.8014
lwrist -4.268
lhand -21.2536 23.8286
lfingers 7.12502
lthumb 5.12953 53.7466
rfemur -9.11928 18.7619 14.1897
rtibia 31.6594
rfoot -27.0805 -21.3291
rtoes 3.32337
lfemur -9.69547 -8.18528 -23.0244
ltibia 26.4437
lfoot -16.9632 13.0062
ltoes -9.1729
8
root -4.71988 18.4996 2.80618 -16.0494 -78.9923 18.8134
lowerback 1.13494 2.63398 -5.61415
upperback -0.466731 3.34167 -2.79635
thorax -1.27267 1.67973 0.185149
lowerneck -12.6993 -0.625374 -4.99471
upperneck 7.45102 -0.684115 6.64072
head 4.33783 -0.088855 2.81739
rclavicle 2.76062e-014 -2.3059e-014
rhumerus -35.5281 5.73074 -82.6207
rradius 32.5438
rwrist 13.1066
rhand -29.0959 -3.63238
rfingers 7.12502
rthumb -2.44433 -33.5981
lclavicle 2.76062e-014 -2.3059e-014
lhumerus -33.4144 17.1867 70.5735
lradius 22.7344
lwrist -5.85498
lhand -19.5548 23.8567
lfingers 7.12502
lthumb 6.76956 53.7285
rfemur -9.01134 18.7454 14.2132
rtibia 31.6464
rfoot -27.1348 -21.2131
rtoes 3.23337
lfemur -9.55601 -8.24002 -23.0347
ltibia 26.4388
lfoot -17.1271 13.0378
ltoes -8.67039
9
root -4.71828 18.5011 2.80662 -16.2923 -78.9067 19.1216
lowerback 1.15672 2.57461 -5.75849
upperback -0.505836 3.25547 -2.7913
thorax -1.32991 1.6392 0.270163
lowerneck -12.5457 -0.630869 -5.0898
upperneck 7.23166 -0.672438 6.64905
head 4.24503 -0.0890422 2.83411
rclavicle 3.91606e-014 -4.13472e-014
rhumerus -35.4818 5.96733 -82.5585
rradius 32.6464
rwrist 12.8925
rhand -29.0087 -3.85154
rfingers 7.12502
rthumb -2.36011 -33.8182
lclavicle 3.91606e-014 -4.13472e-014
lhumerus -33.3927 16.5342 70.8696
lradius 22.8626
lwrist -4.05258
lhand -21.5223 23.9958
lfingers 7.12502
lthumb 4.87002 53.9198
rfemur -9.05444 18.7448 14.1149
rtibia 31.6364
rfoot -27.1391 -21.261
rtoes 3.11031
lfemur -9.63311 -8.2783 -23.0976
ltibia 26.4459
lfoot -17.1795 12.9157
ltoes -8.21734
10
root -4.71961 18.5005 2.80958 -16.7956 -78.8661 19.6993
lowerback 1.1027 2.55073 -5.93686
upperback -0.522691 3.22257 -2.8073
thorax -1.32466 1.62361 0.355173
lowerneck -12.5409 -0.643186 -5.20783
upperneck 7.16446 -0.677343 6.75504
head 4.22481 -0.0891849 2.88563
rclavicle 1.72446e-014 -3.65764e-014
rhumerus -35.394 6.0528 -82.4157
rradius 32.7327
rwrist 12.7901
rhand -28.8844 -2.60124
rfingers 7.12502
rthumb -2.24002 -32.5692
lclavicle 1.72446e-014 -3.65764e-014
lhumerus -33.4442 17.126 70.3103
lradius 22.8459
lwrist -5.6636
lhand -20.2409 24.0007
lfingers 7.12502
lthumb 6.10723 53.8926
rfemur -9.10417 18.7178 13.9454
rtibia 31.5928
rfoot -27.0561 -21.2783
rtoes 3.0539
lfemur -9.74768 -8.25683 -23.2388
ltibia 26.5252
lfoot -17.1297 12.9876
ltoes -8.68814
11
root -4.71623 18.502 2.80752 -15.5097 -78.8863 18.5246
lowerback 1.06181 2.53296 -5.82282
upperback -0.568787 3.20412 -2.75491
thorax -1.3448 1.61572 0.347153
lowerneck -12.5816 -0.679192 -5.08482
upperneck 7.10133 -0.735829 6.6888
head 4.21507 -0.118153 2.84028
rclavicle -6.79098e-014 2.3059e-014
rhumerus -35.3418 6.08536 -82.2992
rradius 32.8708
rwrist 12.4323
rhand -29.5994 1.83315
rfingers 7.12502
rthumb -2.93057 -28.1265
lclavicle -6.79098e-014 2.3059e-014
lhumerus -33.3749 17.31 69.9613
lradius 22.887
lwrist -6.15045
lhand -19.6569 23.9579
lfingers 7.12502
lthumb 6.67108 53.8328
rfemur -9.26414 18.8405 14.1707
rtibia 31.5677
rfoot -27.1246 -21.4132
rtoes 3.2364
lfemur -9.97284 -8.25816 -22.9548
ltibia 26.5718
lfoot -17.0546 12.9902
ltoes -8.78671
12
root -4.71266 18.5048 2.80577 -13.3011 -78.9393 16.397
lowerback 1.03093 2.5166 -5.48001
upperback -0.612698 3.19311 -2.66534
thorax -1.35781 1.61054 0.250406
lowerneck -12.6254 -0.761091 -5.06134
upperneck 7.03296 -0.846651 6.69948
head 4.2081 -0.171287 2.83141
rclavicle 8.69683e-015 -7.15625e-015
rhumerus -35.2512 5.95756 -82.0982
rradius 32.9162
rwrist 12.3732
rhand -29.1937 -1.26061
rfingers 7.12502
rthumb -2.53873 -31.2252
lclavicle 8.69683e-015 -7.15625e-015
lhumerus -33.205 16.616 70.1517
lradius 23.0518
lwrist -4.48008
lhand -20.7815 24.0491
lfingers 7.12502
lthumb 5.58528 53.9555
rfemur -9.3986 18.9628 14.6139
rtibia 31.5494
rfoot -27.1264 -21.6111
rtoes 3.23105
lfemur -10.1606 -8.33818 -22.4623
ltibia 26.5864
lfoot -17.0339 13.0019
ltoes -8.56611
